<svg xmlns="http://www.w3.org/2000/svg" viewBox="0 0 256 256">
  <defs>
    <linearGradient id="bg" x1="0%" y1="0%" x2="100%" y2="100%">
      <stop offset="0%" stop-color="#4caf6a"/>
      <stop offset="55%" stop-color="#f7d58a"/>
      <stop offset="100%" stop-color="#d64f77"/>
    </linearGradient>
  </defs>
  <rect x="14" y="14" width="228" height="228" rx="52" fill="url(#bg)"/>
  <rect x="14" y="14" width="228" height="228" rx="52" fill="none" stroke="#fff7df" stroke-width="4" opacity=".75"/>
  <path d="M128 190c-30-33-48-61-48-92 0-29 20-50 48-50s48 21 48 50c0 31-18 59-48 92Z" fill="#fff7df"/>
  <path d="M128 173c-20-27-31-49-31-72 0-19 12-32 31-32s31 13 31 32c0 23-11 45-31 72Z" fill="#4caf6a"/>
  <path d="M128 72c-16-17-32-20-50-14 4 19 17 31 42 33" fill="#fff7df"/>
  <path d="M132 72c16-17 32-20 50-14-4 19-17 31-42 33" fill="#fff7df"/>
  <circle cx="98" cy="106" r="9" fill="#3f3556" opacity=".75"/>
  <circle cx="158" cy="106" r="9" fill="#3f3556" opacity=".75"/>
  <path d="M108 132c12 12 28 12 40 0" fill="none" stroke="#3f3556" stroke-width="8" stroke-linecap="round"/>
  <text x="128" y="224" text-anchor="middle" fill="#3f3556" font-size="22" font-family="Segoe UI, Arial, sans-serif" font-weight="800">Story Sprout</text>
</svg>
